# xmcd
#
# Track frame offsets:
#	150
#	21875
#	39292
#
# Disc length: 769 seconds
#
# Revision: 0
# Processed by: cddbd v1.5.2PL0 Copyright (c) Steve Scherf et al.
# Submitted via: EasyCDDAExtractor 15.3.0.1
#
DISCID=1802ff03
DTITLE=Céline Dion - Only One Road(European CD maxi single)
DYEAR=1994
DGENRE=Pop
TTITLE0=Only One Road
TTITLE1=L'amour existe encore
TTITLE2=Calling You" (Live)
EXTD=
EXTT0=
EXTT1=
EXTT2=
PLAYORDER=
